<?xml version="1.0" encoding="utf-8"?>
<!-- Generator: Adobe Illustrator 19.2.0, SVG Export Plug-In . SVG Version: 6.00 Build 0)  -->
<!DOCTYPE svg PUBLIC "-//W3C//DTD SVG 1.1//EN" "http://www.w3.org/Graphics/SVG/1.1/DTD/svg11.dtd">
<svg version="1.1" id="Layer_1" xmlns="http://www.w3.org/2000/svg" xmlns:xlink="http://www.w3.org/1999/xlink" x="0px" y="0px"
	 viewBox="0 0 237 346" style="enable-background:new 0 0 237 346;" xml:space="preserve">
<style type="text/css">
	.st0{fill:#010101;}
	.st1{font-family:'Dosis-Medium';}
	.st2{font-size:33.4999px;}
	.st3{fill:none;stroke:#010101;stroke-width:3.0757;stroke-miterlimit:10;}
	.st4{fill:none;stroke:#010101;stroke-width:3.0757;stroke-miterlimit:10;stroke-dasharray:8.9415,8.9417;}
	.st5{font-family:'AbrilFatface-Regular';}
	.st6{font-size:25.9002px;}
	.st7{fill:#EEE948;}
	.st8{font-size:41px;}
</style>
<text transform="matrix(1 0 0 1 39.3348 154.4293)" class="st0 st1 st2">Apps</text>
<text transform="matrix(1 0 0 1 39.3348 208.5816)" class="st0 st1 st2">Websites</text>
<text transform="matrix(1 0 0 1 39.3348 260.0934)" class="st0 st1 st2">Int. Graphics</text>
<text transform="matrix(1 0 0 1 39.3342 313.3473)" class="st0 st1 st2">Games</text>
<g>
	<g>
		<polyline class="st3" points="224.2,6.5 228.6,6.5 228.6,10.9 		"/>
		<path class="st4" d="M228.6,19.9v285.9c0,19.7-16.9,35.8-37.6,35.8H41.1c-20.7,0-37.6-16.1-37.6-35.8V42.2
			c0-19.7,16.9-35.8,37.6-35.8h178.5"/>
	</g>
</g>
<g>
	<text transform="matrix(0.9919 0 0 1 66.2645 34.9887)" class="st0 st5 st6"> </text>
	<g>
		<g>
			<path class="st7" d="M17.1,144.8c-1-1-1.5-2.3-1.5-3.8c0-1.5,0.5-2.7,1.5-3.7c1-1,2.3-1.5,3.7-1.5c1.5,0,2.7,0.5,3.8,1.5
				c1,1,1.6,2.3,1.6,3.7c0,1.5-0.5,2.7-1.6,3.8c-1,1-2.3,1.6-3.8,1.6C19.3,146.4,18.1,145.9,17.1,144.8z"/>
		</g>
		<g>
			<path class="st7" d="M17.1,201.9c-1-1-1.5-2.3-1.5-3.8c0-1.5,0.5-2.7,1.5-3.7c1-1,2.3-1.5,3.7-1.5c1.5,0,2.7,0.5,3.8,1.5
				c1,1,1.6,2.3,1.6,3.7c0,1.5-0.5,2.7-1.6,3.8c-1,1-2.3,1.6-3.8,1.6C19.3,203.4,18.1,202.9,17.1,201.9z"/>
		</g>
		<g>
			<path class="st7" d="M17.1,252.4c-1-1-1.5-2.3-1.5-3.8c0-1.5,0.5-2.7,1.5-3.7c1-1,2.3-1.5,3.7-1.5c1.5,0,2.7,0.5,3.8,1.5
				c1,1,1.6,2.3,1.6,3.7c0,1.5-0.5,2.7-1.6,3.8c-1,1-2.3,1.6-3.8,1.6C19.3,253.9,18.1,253.4,17.1,252.4z"/>
		</g>
		<g>
			<path class="st7" d="M17.1,304.8c-1-1-1.5-2.3-1.5-3.8c0-1.5,0.5-2.7,1.5-3.7c1-1,2.3-1.5,3.7-1.5c1.5,0,2.7,0.5,3.8,1.5
				c1,1,1.6,2.3,1.6,3.7c0,1.5-0.5,2.7-1.6,3.8c-1,1-2.3,1.6-3.8,1.6C19.3,306.4,18.1,305.9,17.1,304.8z"/>
		</g>
	</g>
	<text transform="matrix(0.9919 0 0 1 47.5849 63.8201)" class="st0 st5 st8">Create</text>
</g>
</svg>
