<?xml version="1.0" encoding="utf-8"?>
<!-- Generator: Adobe Illustrator 19.2.0, SVG Export Plug-In . SVG Version: 6.00 Build 0)  -->
<!DOCTYPE svg PUBLIC "-//W3C//DTD SVG 1.1//EN" "http://www.w3.org/Graphics/SVG/1.1/DTD/svg11.dtd">
<svg version="1.1" id="Layer_1" xmlns="http://www.w3.org/2000/svg" xmlns:xlink="http://www.w3.org/1999/xlink" x="0px" y="0px"
	 viewBox="0 0 237 346" style="enable-background:new 0 0 237 346;" xml:space="preserve">
<style type="text/css">
	.st0{fill:#010101;}
	.st1{font-family:'Dosis-Medium';}
	.st2{font-size:33.4999px;}
	.st3{fill:none;stroke:#010101;stroke-width:3.0757;stroke-miterlimit:10;}
	.st4{fill:none;stroke:#010101;stroke-width:3.0757;stroke-miterlimit:10;stroke-dasharray:8.9415,8.9417;}
	.st5{font-family:'AbrilFatface-Regular';}
	.st6{font-size:25.9002px;}
	.st7{fill:#EEE948;}
	.st8{font-size:41px;}
	.st9{fill:none;stroke:#010101;stroke-width:0.6637;stroke-miterlimit:10;stroke-dasharray:3.3433,3.3433;}
	.st10{fill:none;stroke:#010101;stroke-width:0.603;stroke-miterlimit:10;stroke-dasharray:3.0148,3.0148;}
	.st11{fill:none;stroke:#010101;stroke-width:0.769;stroke-miterlimit:10;stroke-dasharray:3.823,3.823;}
	.st12{fill:none;stroke:#010101;stroke-width:0.7057;stroke-miterlimit:10;stroke-dasharray:3.5292,3.5292;}
</style>
<text transform="matrix(1 0 0 1 39.3348 154.4293)" class="st0 st1 st2">Video Lessons</text>
<text transform="matrix(1 0 0 1 39.3348 208.5816)" class="st0 st1 st2">e-Textbooks</text>
<text transform="matrix(1 0 0 1 39.3348 260.0934)" class="st0 st1 st2">Podcasts</text>
<text transform="matrix(1 0 0 1 39.3342 313.3473)" class="st0 st1 st2">Discussions</text>
<g>
	<g>
		<polyline class="st3" points="224.2,6.5 228.6,6.5 228.6,10.9 		"/>
		<path class="st4" d="M228.6,19.9v285.9c0,19.7-16.9,35.8-37.6,35.8H41.1c-20.7,0-37.6-16.1-37.6-35.8V42.2
			c0-19.7,16.9-35.8,37.6-35.8h178.5"/>
	</g>
</g>
<g>
	<text transform="matrix(0.9919 0 0 1 66.2645 34.9887)" class="st0 st5 st6"> </text>
	<g>
		<g>
			<path class="st7" d="M17.1,144.8c-1-1-1.5-2.3-1.5-3.8c0-1.5,0.5-2.7,1.5-3.7c1-1,2.3-1.5,3.7-1.5c1.5,0,2.7,0.5,3.8,1.5
				c1,1,1.6,2.3,1.6,3.7c0,1.5-0.5,2.7-1.6,3.8c-1,1-2.3,1.6-3.8,1.6C19.3,146.4,18.1,145.9,17.1,144.8z"/>
		</g>
		<g>
			<path class="st7" d="M17.1,201.9c-1-1-1.5-2.3-1.5-3.8c0-1.5,0.5-2.7,1.5-3.7c1-1,2.3-1.5,3.7-1.5c1.5,0,2.7,0.5,3.8,1.5
				c1,1,1.6,2.3,1.6,3.7c0,1.5-0.5,2.7-1.6,3.8c-1,1-2.3,1.6-3.8,1.6C19.3,203.4,18.1,202.9,17.1,201.9z"/>
		</g>
		<g>
			<path class="st7" d="M17.1,252.4c-1-1-1.5-2.3-1.5-3.8c0-1.5,0.5-2.7,1.5-3.7c1-1,2.3-1.5,3.7-1.5c1.5,0,2.7,0.5,3.8,1.5
				c1,1,1.6,2.3,1.6,3.7c0,1.5-0.5,2.7-1.6,3.8c-1,1-2.3,1.6-3.8,1.6C19.3,253.9,18.1,253.4,17.1,252.4z"/>
		</g>
		<g>
			<path class="st7" d="M17.1,304.8c-1-1-1.5-2.3-1.5-3.8c0-1.5,0.5-2.7,1.5-3.7c1-1,2.3-1.5,3.7-1.5c1.5,0,2.7,0.5,3.8,1.5
				c1,1,1.6,2.3,1.6,3.7c0,1.5-0.5,2.7-1.6,3.8c-1,1-2.3,1.6-3.8,1.6C19.3,306.4,18.1,305.9,17.1,304.8z"/>
		</g>
	</g>
	<text transform="matrix(0.9919 0 0 1 56.592 63.8201)" class="st0 st5 st8">Learn</text>
</g>
<g>
	<text transform="matrix(1 0 0 1 -325.8371 18.183)" class="st7" style="font-family:'Montserrat-Regular'; font-size:39.5827px;">Learn</text>
	<g>
		<path class="st9" d="M-199.7,42.9h-139.2c-2.2,0-4-1.8-4-4v-62.3c0-2.2,1.8-4,4-4h139.2c2.2,0,4,1.8,4,4v62.3
			C-195.7,41.1-197.5,42.9-199.7,42.9z"/>
	</g>
	<g>
		<polyline class="st10" points="-314.8,44.8 -314.8,135.3 -244,135 		"/>
		<line class="st10" x1="-245.5" y1="87.4" x2="-313.3" y2="87.4"/>
	</g>
	<g>
		<polyline class="st10" points="-315,138 -315,228.5 -247.5,227.7 		"/>
		<line class="st10" x1="-245.7" y1="180.6" x2="-313.5" y2="180.6"/>
	</g>
	<text transform="matrix(1 0 0 1 -244.5241 90.0493)" class="st0 st1" style="font-size:29.0489px;">Video Lessons</text>
	<text transform="matrix(1 0 0 1 -244.5241 137.0073)" class="st0 st1" style="font-size:29.0489px;">e-textbooks</text>
	<text transform="matrix(1 0 0 1 -244.5241 181.6752)" class="st0 st1" style="font-size:29.0489px;">Podcast Lessons</text>
	<text transform="matrix(1 0 0 1 -244.5241 228.061)" class="st0 st1" style="font-size:29.0489px;">Discussions</text>
</g>
<g>
	
		<text transform="matrix(1 0 0 1 -37.5151 -335.5616)" class="st7" style="font-family:'Montserrat-Regular'; font-size:39.5827px;">Practice</text>
	<g>
		<path class="st11" d="M138.4-310.8H-49.9c-2.5,0-4.6-2.1-4.6-4.6v-61.1c0-2.5,2.1-4.6,4.6-4.6h188.3c2.5,0,4.6,2.1,4.6,4.6v61.1
			C143-312.9,140.9-310.8,138.4-310.8z"/>
	</g>
	<g>
		<polyline class="st10" points="-26.5,-308.9 -26.5,-218.4 44.3,-218.8 		"/>
		<line class="st10" x1="42.8" y1="-266.3" x2="-25" y2="-266.3"/>
	</g>
	<g>
		<polyline class="st10" points="-26.7,-215.8 -26.7,-125.3 40.8,-126 		"/>
		<line class="st10" x1="42.6" y1="-173.2" x2="-25.2" y2="-173.2"/>
	</g>
	<text transform="matrix(1 0 0 1 43.7979 -263.6954)" class="st0 st1" style="font-size:29.0489px;">Lessons </text>
	<text transform="matrix(1 0 0 1 43.7979 -216.7374)" class="st0 st1" style="font-size:29.0489px;">Review</text>
	<text transform="matrix(1 0 0 1 43.7979 -172.0695)" class="st0 st1" style="font-size:29.0489px;">Application</text>
	<text transform="matrix(1 0 0 1 43.7979 -125.6837)" class="st0 st1" style="font-size:29.0489px;">Quiz </text>
</g>
<g>
	<text transform="matrix(1 0 0 1 260.128 510.523)" class="st7" style="font-family:'Montserrat-Regular'; font-size:39.5827px;">Create</text>
	<g>
		<path class="st12" d="M405.2,535.2H247.4c-2.3,0-4.2-1.9-4.2-4.2v-61.8c0-2.3,1.9-4.2,4.2-4.2h157.8c2.3,0,4.2,1.9,4.2,4.2V531
			C409.4,533.3,407.5,535.2,405.2,535.2z"/>
	</g>
	<g>
		<polyline class="st10" points="271.2,537.2 271.2,627.7 341.9,627.3 		"/>
		<line class="st10" x1="340.4" y1="579.7" x2="272.6" y2="579.7"/>
	</g>
	<g>
		<polyline class="st10" points="271,630.3 271,720.8 338.5,720.1 		"/>
		<line class="st10" x1="340.2" y1="672.9" x2="272.4" y2="672.9"/>
	</g>
	<text transform="matrix(1 0 0 1 341.441 582.3892)" class="st0 st1" style="font-size:29.0489px;">Apps </text>
	<text transform="matrix(1 0 0 1 341.441 629.3472)" class="st0 st1" style="font-size:29.0489px;">Websites</text>
	<text transform="matrix(1 0 0 1 341.441 674.0151)" class="st0 st1" style="font-size:29.0489px;">Interactive Graphics</text>
	<text transform="matrix(1 0 0 1 341.441 720.4009)" class="st0 st1" style="font-size:29.0489px;">Your Future</text>
</g>
</svg>
