<?xml version="1.0" encoding="utf-8"?>
<!-- Generator: Adobe Illustrator 19.2.0, SVG Export Plug-In . SVG Version: 6.00 Build 0)  -->
<!DOCTYPE svg PUBLIC "-//W3C//DTD SVG 1.1//EN" "http://www.w3.org/Graphics/SVG/1.1/DTD/svg11.dtd">
<svg version="1.1" id="Layer_1" xmlns="http://www.w3.org/2000/svg" xmlns:xlink="http://www.w3.org/1999/xlink" x="0px" y="0px"
	 viewBox="0 0 237 346" style="enable-background:new 0 0 237 346;" xml:space="preserve">
<style type="text/css">
	.st0{fill:#010101;}
	.st1{font-family:'Dosis-Medium';}
	.st2{font-size:33.4999px;}
	.st3{fill:none;stroke:#010101;stroke-width:3.0757;stroke-miterlimit:10;}
	.st4{fill:none;stroke:#010101;stroke-width:3.0757;stroke-miterlimit:10;stroke-dasharray:8.9415,8.9417;}
	.st5{font-family:'AbrilFatface-Regular';}
	.st6{font-size:25.9002px;}
	.st7{fill:#EEE948;}
	.st8{font-size:41px;}
	.st9{fill:none;stroke:#010101;stroke-width:0.769;stroke-miterlimit:10;stroke-dasharray:3.823,3.823;}
	.st10{fill:none;stroke:#010101;stroke-width:0.603;stroke-miterlimit:10;stroke-dasharray:3.0148,3.0148;}
	.st11{fill:none;stroke:#010101;stroke-width:0.7057;stroke-miterlimit:10;stroke-dasharray:3.5292,3.5292;}
</style>
<text transform="matrix(1 0 0 1 39.3348 154.4293)" class="st0 st1 st2">Lessons</text>
<text transform="matrix(1 0 0 1 39.3348 208.5816)" class="st0 st1 st2">Review</text>
<text transform="matrix(1 0 0 1 39.3348 260.0934)" class="st0 st1 st2">Application</text>
<text transform="matrix(1 0 0 1 39.3342 313.3473)" class="st0 st1 st2">Quizes</text>
<g>
	<g>
		<polyline class="st3" points="224.2,6.5 228.6,6.5 228.6,10.9 		"/>
		<path class="st4" d="M228.6,19.9v285.9c0,19.7-16.9,35.8-37.6,35.8H41.1c-20.7,0-37.6-16.1-37.6-35.8V42.2
			c0-19.7,16.9-35.8,37.6-35.8h178.5"/>
	</g>
</g>
<g>
	<text transform="matrix(0.9919 0 0 1 66.2645 34.9887)" class="st0 st5 st6"> </text>
	<g>
		<g>
			<path class="st7" d="M17.1,144.8c-1-1-1.5-2.3-1.5-3.8c0-1.5,0.5-2.7,1.5-3.7c1-1,2.3-1.5,3.7-1.5c1.5,0,2.7,0.5,3.8,1.5
				c1,1,1.6,2.3,1.6,3.7c0,1.5-0.5,2.7-1.6,3.8c-1,1-2.3,1.6-3.8,1.6C19.3,146.4,18.1,145.9,17.1,144.8z"/>
		</g>
		<g>
			<path class="st7" d="M17.1,201.9c-1-1-1.5-2.3-1.5-3.8c0-1.5,0.5-2.7,1.5-3.7c1-1,2.3-1.5,3.7-1.5c1.5,0,2.7,0.5,3.8,1.5
				c1,1,1.6,2.3,1.6,3.7c0,1.5-0.5,2.7-1.6,3.8c-1,1-2.3,1.6-3.8,1.6C19.3,203.4,18.1,202.9,17.1,201.9z"/>
		</g>
		<g>
			<path class="st7" d="M17.1,252.4c-1-1-1.5-2.3-1.5-3.8c0-1.5,0.5-2.7,1.5-3.7c1-1,2.3-1.5,3.7-1.5c1.5,0,2.7,0.5,3.8,1.5
				c1,1,1.6,2.3,1.6,3.7c0,1.5-0.5,2.7-1.6,3.8c-1,1-2.3,1.6-3.8,1.6C19.3,253.9,18.1,253.4,17.1,252.4z"/>
		</g>
		<g>
			<path class="st7" d="M17.1,304.8c-1-1-1.5-2.3-1.5-3.8c0-1.5,0.5-2.7,1.5-3.7c1-1,2.3-1.5,3.7-1.5c1.5,0,2.7,0.5,3.8,1.5
				c1,1,1.6,2.3,1.6,3.7c0,1.5-0.5,2.7-1.6,3.8c-1,1-2.3,1.6-3.8,1.6C19.3,306.4,18.1,305.9,17.1,304.8z"/>
		</g>
	</g>
	<text transform="matrix(0.9919 0 0 1 39.5786 63.8201)" class="st0 st5 st8">Practice</text>
</g>
<g>
	<text transform="matrix(1 0 0 1 -278.5151 91.637)" class="st7" style="font-family:'Montserrat-Regular'; font-size:39.5827px;">Practice</text>
	<g>
		<path class="st9" d="M-102.6,116.3h-188.3c-2.5,0-4.6-2.1-4.6-4.6V50.7c0-2.5,2.1-4.6,4.6-4.6h188.3c2.5,0,4.6,2.1,4.6,4.6v61.1
			C-98,114.3-100.1,116.3-102.6,116.3z"/>
	</g>
	<g>
		<polyline class="st10" points="-267.5,118.3 -267.5,208.8 -196.7,208.4 		"/>
		<line class="st10" x1="-198.2" y1="160.9" x2="-266" y2="160.9"/>
	</g>
	<g>
		<polyline class="st10" points="-267.7,211.4 -267.7,301.9 -200.2,301.2 		"/>
		<line class="st10" x1="-198.4" y1="254" x2="-266.2" y2="254"/>
	</g>
	<text transform="matrix(1 0 0 1 -197.2021 163.5032)" class="st0 st1" style="font-size:29.0489px;">Lessons </text>
	<text transform="matrix(1 0 0 1 -197.2021 210.4612)" class="st0 st1" style="font-size:29.0489px;">Review</text>
	<text transform="matrix(1 0 0 1 -197.2021 255.1292)" class="st0 st1" style="font-size:29.0489px;">Application</text>
	<text transform="matrix(1 0 0 1 -197.2021 301.515)" class="st0 st1" style="font-size:29.0489px;">Quiz </text>
</g>
<g>
	<text transform="matrix(1 0 0 1 260.128 510.523)" class="st7" style="font-family:'Montserrat-Regular'; font-size:39.5827px;">Create</text>
	<g>
		<path class="st11" d="M405.2,535.2H247.4c-2.3,0-4.2-1.9-4.2-4.2v-61.8c0-2.3,1.9-4.2,4.2-4.2h157.8c2.3,0,4.2,1.9,4.2,4.2V531
			C409.4,533.3,407.5,535.2,405.2,535.2z"/>
	</g>
	<g>
		<polyline class="st10" points="271.2,537.2 271.2,627.7 341.9,627.3 		"/>
		<line class="st10" x1="340.4" y1="579.7" x2="272.6" y2="579.7"/>
	</g>
	<g>
		<polyline class="st10" points="271,630.3 271,720.8 338.5,720.1 		"/>
		<line class="st10" x1="340.2" y1="672.9" x2="272.4" y2="672.9"/>
	</g>
	<text transform="matrix(1 0 0 1 341.441 582.3892)" class="st0 st1" style="font-size:29.0489px;">Apps </text>
	<text transform="matrix(1 0 0 1 341.441 629.3472)" class="st0 st1" style="font-size:29.0489px;">Websites</text>
	<text transform="matrix(1 0 0 1 341.441 674.0151)" class="st0 st1" style="font-size:29.0489px;">Interactive Graphics</text>
	<text transform="matrix(1 0 0 1 341.441 720.4009)" class="st0 st1" style="font-size:29.0489px;">Your Future</text>
</g>
</svg>
